/* XPM */
static char *result[] = {
/* columns rows colors chars-per-pixel */
"64 64 4 1 ",
"  c #281F47",
". c #302457",
"X c #41346B",
"o c #7461AB",
/* pixels */
"oooooooooooooooooooooooooooooooooooooooooooooooooooooooooooooooo",
"oooooooooooooooooooooooooooooooooooooooooooooooooooooooooooooooo",
"oooooooooooooooooooooooooooooooooooooooooooooooooooooooooooooooo",
"oooooooooooooooooooooooooooooooooooooooooooooooooooooooooooooooo",
"oooooooooooooooooooooooooooooooooooooooooooooooooooooooooooooooo",
"oooooooooooooooooooooooooooooooooooooooooooooooooooooooooooooooo",
"oooooooooooooooooooooooooooooooooooooooooooooooooooooooooooooooo",
"oooooooooooooooooooooooooooooooooooooooooooooooooooooooooooooooo",
"ooooooooXXXXXXXXXXXXXXXXXXXXXXXXXXXXXXXXXXXXXXXXXXXXXXXXoooooooo",
"ooooooooXXXXXXXXXXXXXXXXXXXXXXXXXXXXXXXXXXXXXXXXXXXXXXXXoooooooo",
"ooooooooXXXXXXXXXXXXXXXXXXXXXXXXXXXXXXXXXXXXXXXXXXXXXXXXoooooooo",
"ooooooooXXXXXXXXXXXXXXXXXXXXXXXXXXXXXXXXXXXXXXXXXXXXXXXXoooooooo",
"ooooooooXXXXooooooooooooooooooooooooooooooooooooooooXXXXoooooooo",
"ooooooooXXXXooooooooooooooooooooooooooooooooooooooooXXXXoooooooo",
"ooooooooXXXXooooooooooooooooooooooooooooooooooooooooXXXXoooooooo",
"ooooooooXXXXooooooooooooooooooooooooooooooooooooooooXXXXoooooooo",
"ooooooooXXXXoooo................................ooooXXXXoooooooo",
"ooooooooXXXXoooo................................ooooXXXXoooooooo",
"ooooooooXXXXoooo................................ooooXXXXoooooooo",
"ooooooooXXXXoooo................................ooooXXXXoooooooo",
"ooooooooXXXXoooo....oooooooooooooooooooooooo....ooooXXXXoooooooo",
"ooooooooXXXXoooo....oooooooooooooooooooooooo....ooooXXXXoooooooo",
"ooooooooXXXXoooo....oooooooooooooooooooooooo....ooooXXXXoooooooo",
"ooooooooXXXXoooo....oooooooooooooooooooooooo....ooooXXXXoooooooo",
"ooooooooXXXXoooo....oooo                oooo....ooooXXXXoooooooo",
"ooooooooXXXXoooo....oooo                oooo....ooooXXXXoooooooo",
"ooooooooXXXXoooo....oooo                oooo....ooooXXXXoooooooo",
"ooooooooXXXXoooo....oooo                oooo....ooooXXXXoooooooo",
"ooooooooXXXXoooo....oooo    oooooooo    oooo....ooooXXXXoooooooo",
"ooooooooXXXXoooo....oooo    oooooooo    oooo....ooooXXXXoooooooo",
"ooooooooXXXXoooo....oooo    oooooooo    oooo....ooooXXXXoooooooo",
"ooooooooXXXXoooo....oooo    oooooooo    oooo....ooooXXXXoooooooo",
"ooooooooXXXXoooo....oooo    oooooooo    oooo....ooooXXXXoooooooo",
"ooooooooXXXXoooo....oooo    oooooooo    oooo....ooooXXXXoooooooo",
"ooooooooXXXXoooo....oooo    oooooooo    oooo....ooooXXXXoooooooo",
"ooooooooXXXXoooo....oooo    oooooooo    oooo....ooooXXXXoooooooo",
"ooooooooXXXXoooo....oooo                oooo....ooooXXXXoooooooo",
"ooooooooXXXXoooo....oooo                oooo....ooooXXXXoooooooo",
"ooooooooXXXXoooo....oooo                oooo....ooooXXXXoooooooo",
"ooooooooXXXXoooo....oooo                oooo....ooooXXXXoooooooo",
"ooooooooXXXXoooo....oooooooooooooooooooooooo....ooooXXXXoooooooo",
"ooooooooXXXXoooo....oooooooooooooooooooooooo....ooooXXXXoooooooo",
"ooooooooXXXXoooo....oooooooooooooooooooooooo....ooooXXXXoooooooo",
"ooooooooXXXXoooo....oooooooooooooooooooooooo....ooooXXXXoooooooo",
"ooooooooXXXXoooo................................ooooXXXXoooooooo",
"ooooooooXXXXoooo................................ooooXXXXoooooooo",
"ooooooooXXXXoooo................................ooooXXXXoooooooo",
"ooooooooXXXXoooo................................ooooXXXXoooooooo",
"ooooooooXXXXooooooooooooooooooooooooooooooooooooooooXXXXoooooooo",
"ooooooooXXXXooooooooooooooooooooooooooooooooooooooooXXXXoooooooo",
"ooooooooXXXXooooooooooooooooooooooooooooooooooooooooXXXXoooooooo",
"ooooooooXXXXooooooooooooooooooooooooooooooooooooooooXXXXoooooooo",
"ooooooooXXXXXXXXXXXXXXXXXXXXXXXXXXXXXXXXXXXXXXXXXXXXXXXXoooooooo",
"ooooooooXXXXXXXXXXXXXXXXXXXXXXXXXXXXXXXXXXXXXXXXXXXXXXXXoooooooo",
"ooooooooXXXXXXXXXXXXXXXXXXXXXXXXXXXXXXXXXXXXXXXXXXXXXXXXoooooooo",
"ooooooooXXXXXXXXXXXXXXXXXXXXXXXXXXXXXXXXXXXXXXXXXXXXXXXXoooooooo",
"oooooooooooooooooooooooooooooooooooooooooooooooooooooooooooooooo",
"oooooooooooooooooooooooooooooooooooooooooooooooooooooooooooooooo",
"oooooooooooooooooooooooooooooooooooooooooooooooooooooooooooooooo",
"oooooooooooooooooooooooooooooooooooooooooooooooooooooooooooooooo",
"oooooooooooooooooooooooooooooooooooooooooooooooooooooooooooooooo",
"oooooooooooooooooooooooooooooooooooooooooooooooooooooooooooooooo",
"oooooooooooooooooooooooooooooooooooooooooooooooooooooooooooooooo",
"oooooooooooooooooooooooooooooooooooooooooooooooooooooooooooooooo"
};
