/* XPM */
static char *result[] = {
/* columns rows colors chars-per-pixel */
"64 64 6 1 ",
"  c #7461AB",
". c #8C7CC2",
"X c #9687CC",
"o c #A092D4",
"O c #AB9DE0",
"+ c #B6A9EB",
/* pixels */
"                                                                ",
"                                                                ",
"                                                                ",
"                                                                ",
"                                                                ",
"                                                                ",
"                                                                ",
"                                                                ",
"                                                                ",
"                                                                ",
"                                                                ",
"                                                                ",
"                ................................                ",
"                ................................                ",
"                ................................                ",
"                ................................                ",
"            ........XXXXXXXXXXXXXXXXXXXXXXXX........            ",
"            ........XXXXXXXXXXXXXXXXXXXXXXXX........            ",
"            ........XXXXXXXXXXXXXXXXXXXXXXXX........            ",
"            ........XXXXXXXXXXXXXXXXXXXXXXXX........            ",
"            ....XXXXXXXXooooooooooooooooXXXXXXXX....            ",
"            ....XXXXXXXXooooooooooooooooXXXXXXXX....            ",
"            ....XXXXXXXXooooooooooooooooXXXXXXXX....            ",
"            ....XXXXXXXXooooooooooooooooXXXXXXXX....            ",
"            ....XXXXooooooooOOOOOOOOooooooooXXXX....            ",
"            ....XXXXooooooooOOOOOOOOooooooooXXXX....            ",
"            ....XXXXooooooooOOOOOOOOooooooooXXXX....            ",
"            ....XXXXooooooooOOOOOOOOooooooooXXXX....            ",
"            ....XXXXooooOOOO++++++++OOOOooooXXXX....            ",
"            ....XXXXooooOOOO++++++++OOOOooooXXXX....            ",
"            ....XXXXooooOOOO++++++++OOOOooooXXXX....            ",
"            ....XXXXooooOOOO++++++++OOOOooooXXXX....            ",
"            ....XXXXooooOOOO++++++++OOOOooooXXXX....            ",
"            ....XXXXooooOOOO++++++++OOOOooooXXXX....            ",
"            ....XXXXooooOOOO++++++++OOOOooooXXXX....            ",
"            ....XXXXooooOOOO++++++++OOOOooooXXXX....            ",
"            ....XXXXooooooooOOOOOOOOooooooooXXXX....            ",
"            ....XXXXooooooooOOOOOOOOooooooooXXXX....            ",
"            ....XXXXooooooooOOOOOOOOooooooooXXXX....            ",
"            ....XXXXooooooooOOOOOOOOooooooooXXXX....            ",
"            ....XXXXXXXXooooooooooooooooXXXXXXXX....            ",
"            ....XXXXXXXXooooooooooooooooXXXXXXXX....            ",
"            ....XXXXXXXXooooooooooooooooXXXXXXXX....            ",
"            ....XXXXXXXXooooooooooooooooXXXXXXXX....            ",
"            ........XXXXXXXXXXXXXXXXXXXXXXXX........            ",
"            ........XXXXXXXXXXXXXXXXXXXXXXXX........            ",
"            ........XXXXXXXXXXXXXXXXXXXXXXXX........            ",
"            ........XXXXXXXXXXXXXXXXXXXXXXXX........            ",
"                ................................                ",
"                ................................                ",
"                ................................                ",
"                ................................                ",
"                                                                ",
"                                                                ",
"                                                                ",
"                                                                ",
"                                                                ",
"                                                                ",
"                                                                ",
"                                                                ",
"                                                                ",
"                                                                ",
"                                                                ",
"                                                                "
};
