/* XPM */
static char *result[] = {
/* columns rows colors chars-per-pixel */
"64 64 8 1 ",
"  c #140F29",
". c #1B1433",
"X c #21193D",
"o c #281F47",
"O c #342859",
"+ c #41346B",
"@ c #544582",
"# c #7461AB",
/* pixels */
"################################################################",
"################################################################",
"################################################################",
"################################################################",
"####@@@@@@@@@@@@@@@@@@@@@@@@@@@@@@@@@@@@@@@@@@@@@@@@@@@@@@@@####",
"####@@@@@@@@@@@@@@@@@@@@@@@@@@@@@@@@@@@@@@@@@@@@@@@@@@@@@@@@####",
"####@@@@@@@@@@@@@@@@@@@@@@@@@@@@@@@@@@@@@@@@@@@@@@@@@@@@@@@@####",
"####@@@@@@@@@@@@@@@@@@@@@@@@@@@@@@@@@@@@@@@@@@@@@@@@@@@@@@@@####",
"####@@@@++++++++++++++++++++++++++++++++++++++++++++++++@@@@####",
"####@@@@++++++++++++++++++++++++++++++++++++++++++++++++@@@@####",
"####@@@@++++++++++++++++++++++++++++++++++++++++++++++++@@@@####",
"####@@@@++++++++++++++++++++++++++++++++++++++++++++++++@@@@####",
"####@@@@++++OOOOOOOOOOOOOOOOOOOOOOOOOOOOOOOOOOOOOOOO++++@@@@####",
"####@@@@++++OOOOOOOOOOOOOOOOOOOOOOOOOOOOOOOOOOOOOOOO++++@@@@####",
"####@@@@++++OOOOOOOOOOOOOOOOOOOOOOOOOOOOOOOOOOOOOOOO++++@@@@####",
"####@@@@++++OOOOOOOOOOOOOOOOOOOOOOOOOOOOOOOOOOOOOOOO++++@@@@####",
"####@@@@++++OOOOooooooooooooooooooooooooooooooooOOOO++++@@@@####",
"####@@@@++++OOOOooooooooooooooooooooooooooooooooOOOO++++@@@@####",
"####@@@@++++OOOOooooooooooooooooooooooooooooooooOOOO++++@@@@####",
"####@@@@++++OOOOooooooooooooooooooooooooooooooooOOOO++++@@@@####",
"####@@@@++++OOOOooooXXXXXXXXXXXXXXXXXXXXXXXXooooOOOO++++@@@@####",
"####@@@@++++OOOOooooXXXXXXXXXXXXXXXXXXXXXXXXooooOOOO++++@@@@####",
"####@@@@++++OOOOooooXXXXXXXXXXXXXXXXXXXXXXXXooooOOOO++++@@@@####",
"####@@@@++++OOOOooooXXXXXXXXXXXXXXXXXXXXXXXXooooOOOO++++@@@@####",
"####@@@@++++OOOOooooXXXX................XXXXooooOOOO++++@@@@####",
"####@@@@++++OOOOooooXXXX................XXXXooooOOOO++++@@@@####",
"####@@@@++++OOOOooooXXXX................XXXXooooOOOO++++@@@@####",
"####@@@@++++OOOOooooXXXX................XXXXooooOOOO++++@@@@####",
"####@@@@++++OOOOooooXXXX....        ....XXXXooooOOOO++++@@@@####",
"####@@@@++++OOOOooooXXXX....        ....XXXXooooOOOO++++@@@@####",
"####@@@@++++OOOOooooXXXX....        ....XXXXooooOOOO++++@@@@####",
"####@@@@++++OOOOooooXXXX....        ....XXXXooooOOOO++++@@@@####",
"####@@@@++++OOOOooooXXXX....        ....XXXXooooOOOO++++@@@@####",
"####@@@@++++OOOOooooXXXX....        ....XXXXooooOOOO++++@@@@####",
"####@@@@++++OOOOooooXXXX....        ....XXXXooooOOOO++++@@@@####",
"####@@@@++++OOOOooooXXXX....        ....XXXXooooOOOO++++@@@@####",
"####@@@@++++OOOOooooXXXX................XXXXooooOOOO++++@@@@####",
"####@@@@++++OOOOooooXXXX................XXXXooooOOOO++++@@@@####",
"####@@@@++++OOOOooooXXXX................XXXXooooOOOO++++@@@@####",
"####@@@@++++OOOOooooXXXX................XXXXooooOOOO++++@@@@####",
"####@@@@++++OOOOooooXXXXXXXXXXXXXXXXXXXXXXXXooooOOOO++++@@@@####",
"####@@@@++++OOOOooooXXXXXXXXXXXXXXXXXXXXXXXXooooOOOO++++@@@@####",
"####@@@@++++OOOOooooXXXXXXXXXXXXXXXXXXXXXXXXooooOOOO++++@@@@####",
"####@@@@++++OOOOooooXXXXXXXXXXXXXXXXXXXXXXXXooooOOOO++++@@@@####",
"####@@@@++++OOOOooooooooooooooooooooooooooooooooOOOO++++@@@@####",
"####@@@@++++OOOOooooooooooooooooooooooooooooooooOOOO++++@@@@####",
"####@@@@++++OOOOooooooooooooooooooooooooooooooooOOOO++++@@@@####",
"####@@@@++++OOOOooooooooooooooooooooooooooooooooOOOO++++@@@@####",
"####@@@@++++OOOOOOOOOOOOOOOOOOOOOOOOOOOOOOOOOOOOOOOO++++@@@@####",
"####@@@@++++OOOOOOOOOOOOOOOOOOOOOOOOOOOOOOOOOOOOOOOO++++@@@@####",
"####@@@@++++OOOOOOOOOOOOOOOOOOOOOOOOOOOOOOOOOOOOOOOO++++@@@@####",
"####@@@@++++OOOOOOOOOOOOOOOOOOOOOOOOOOOOOOOOOOOOOOOO++++@@@@####",
"####@@@@++++++++++++++++++++++++++++++++++++++++++++++++@@@@####",
"####@@@@++++++++++++++++++++++++++++++++++++++++++++++++@@@@####",
"####@@@@++++++++++++++++++++++++++++++++++++++++++++++++@@@@####",
"####@@@@++++++++++++++++++++++++++++++++++++++++++++++++@@@@####",
"####@@@@@@@@@@@@@@@@@@@@@@@@@@@@@@@@@@@@@@@@@@@@@@@@@@@@@@@@####",
"####@@@@@@@@@@@@@@@@@@@@@@@@@@@@@@@@@@@@@@@@@@@@@@@@@@@@@@@@####",
"####@@@@@@@@@@@@@@@@@@@@@@@@@@@@@@@@@@@@@@@@@@@@@@@@@@@@@@@@####",
"####@@@@@@@@@@@@@@@@@@@@@@@@@@@@@@@@@@@@@@@@@@@@@@@@@@@@@@@@####",
"################################################################",
"################################################################",
"################################################################",
"################################################################"
};
